<?xml version="1.0" encoding="UTF-8" standalone="no"?>
<!DOCTYPE svg PUBLIC "-//W3C//DTD SVG 1.1//EN" "http://www.w3.org/Graphics/SVG/1.1/DTD/svg11.dtd">
<!-- Created with Vectornator (http://vectornator.io/) -->
<svg height="100%" stroke-miterlimit="10" style="fill-rule:nonzero;clip-rule:evenodd;stroke-linecap:round;stroke-linejoin:round;" version="1.1" viewBox="0 0 56.6934 56.6934" width="100%" xml:space="preserve" xmlns="http://www.w3.org/2000/svg" xmlns:xlink="http://www.w3.org/1999/xlink">
<defs/>
<clipPath id="ArtboardFrame">
<rect height="56.6934" width="56.6934" x="0" y="0"/>
</clipPath>
<g clip-path="url(#ArtboardFrame)" id="Layer-1">
<path d="M28.3438 0.0059C12.6883 0.00589873 0 12.6942 0 28.3496C-1.27157e-06 44.0051 12.6883 56.6934 28.3438 56.6934C43.9992 56.6934 56.6875 44.0051 56.6875 28.3496C56.6875 12.6942 43.9992 0.0059 28.3438 0.0059ZM22.4688 12.1934C22.843 12.864 23.2638 13.7571 23.5625 14.4746C26.7139 13.9918 29.9145 13.9918 33.125 14.4746C33.4238 13.7571 33.8478 12.864 34.2188 12.1934C37.2389 12.7165 40.1421 13.6481 42.8438 14.9121C47.5676 21.9666 49.8979 29.9229 49.0312 39.0996C45.417 41.8021 41.9156 43.433 38.4688 44.5059C37.6153 43.3358 36.872 42.0947 36.2188 40.7871C37.4629 40.3143 38.652 39.7178 39.7812 39.0371C39.4858 38.8158 39.1919 38.5877 38.9062 38.3496C32.1208 41.5617 24.6487 41.5617 17.7812 38.3496C17.499 38.5877 17.205 38.8159 16.9062 39.0371C18.0322 39.7144 19.2246 40.3144 20.4688 40.7871C19.8155 42.0981 19.069 43.3357 18.2188 44.5059C14.7752 43.433 11.2705 41.7987 7.65625 39.0996C6.91764 31.1836 8.39442 23.1468 13.8438 14.9121C16.5454 13.6448 19.4454 12.7165 22.4688 12.1934ZM21.4062 25.6934C19.3086 25.6934 17.6562 27.5997 17.6562 29.9434C17.6563 32.2871 19.3447 34.2246 21.4062 34.2246C23.504 34.2247 25.1595 32.2871 25.1562 29.9434C25.1923 27.5964 23.5039 25.6934 21.4062 25.6934ZM35.2812 25.6934C33.1836 25.6934 31.5312 27.5997 31.5312 29.9434C31.5313 32.2871 33.2197 34.2246 35.2812 34.2246C37.3789 34.2247 39.0312 32.2871 39.0312 29.9434C39.0674 27.5964 37.3789 25.6934 35.2812 25.6934Z" fill="#ffffff" fill-rule="nonzero" opacity="1" stroke="none"/>
</g>
</svg>
