<?xml version="1.0" encoding="UTF-8" standalone="no"?>
<!DOCTYPE svg PUBLIC "-//W3C//DTD SVG 1.1//EN" "http://www.w3.org/Graphics/SVG/1.1/DTD/svg11.dtd">
<!-- Created with Vectornator (http://vectornator.io/) -->
<svg height="100%" stroke-miterlimit="10" style="fill-rule:nonzero;clip-rule:evenodd;stroke-linecap:round;stroke-linejoin:round;" version="1.1" viewBox="0 0 56.6934 56.6934" width="100%" xml:space="preserve" xmlns="http://www.w3.org/2000/svg" xmlns:xlink="http://www.w3.org/1999/xlink">
<defs/>
<clipPath id="ArtboardFrame">
<rect height="56.6934" width="56.6934" x="0" y="0"/>
</clipPath>
<g clip-path="url(#ArtboardFrame)" id="Layer-1">
<path d="M25.1839 0.735013C12.1105 2.15604 1.59488 12.6716 0.173857 25.4609C-1.53138 39.6712 7.27899 51.892 19.784 55.8709L19.784 49.3342C19.784 49.3342 18.6472 49.6184 17.2262 49.6184C13.2473 49.6184 11.5421 46.2079 11.2579 44.2185C10.9736 43.0816 10.4052 42.229 9.55264 41.3764C8.70002 41.0922 8.41582 41.0922 8.41582 40.808C8.41582 40.2396 9.26843 40.2396 9.55264 40.2396C11.2579 40.2396 12.6789 42.229 13.2473 43.0816C14.6683 45.3553 16.3736 45.9237 17.2262 45.9237C18.363 45.9237 19.2156 45.6395 19.784 45.3553C20.0682 43.3659 20.9208 41.3764 22.6261 40.2396C16.0893 38.8186 11.2579 35.1239 11.2579 28.8714C11.2579 25.7451 12.6789 22.6188 14.6683 20.3452C14.3841 19.7768 14.0999 18.3558 14.0999 16.3663C14.0999 15.2295 14.0999 13.5243 14.9525 11.819C14.9525 11.819 18.9314 11.819 22.9103 15.5137C24.3313 14.9453 26.3207 14.6611 28.3102 14.6611C30.2996 14.6611 32.2891 14.9453 33.9943 15.5137C37.689 11.819 41.9521 11.819 41.9521 11.819C42.5205 13.5243 42.5205 15.2295 42.5205 16.3663C42.5205 18.64 42.2363 19.7768 41.9521 20.3452C43.9415 22.6188 45.3625 25.4609 45.3625 28.8714C45.3625 35.1239 40.531 38.8186 33.9943 40.2396C35.6995 41.6606 36.8364 44.2185 36.8364 46.7763L36.8364 56.1551C48.4888 52.4604 56.7307 41.6606 56.7307 29.1556C56.7307 12.1032 42.2363-1.25443 25.1839 0.735013Z" fill="#ffffff" fill-rule="nonzero" opacity="1" stroke="none"/>
</g>
</svg>
