<?xml version="1.0" encoding="UTF-8" standalone="no"?>
<!DOCTYPE svg PUBLIC "-//W3C//DTD SVG 1.1//EN" "http://www.w3.org/Graphics/SVG/1.1/DTD/svg11.dtd">
<!-- Created with Vectornator (http://vectornator.io/) -->
<svg height="100%" stroke-miterlimit="10" style="fill-rule:nonzero;clip-rule:evenodd;stroke-linecap:round;stroke-linejoin:round;" version="1.1" viewBox="0 0 880 466" width="100%" xml:space="preserve" xmlns="http://www.w3.org/2000/svg" xmlns:xlink="http://www.w3.org/1999/xlink">
<defs/>
<g id="Layer-1">
<path d="M82.856 264.355C79.0682 264.355 76.4641 263.605 75.0437 262.106C73.6233 260.607 72.9131 258.042 72.9131 254.412L72.9131 106.215C72.9131 102.585 73.6233 100.02 75.0437 98.5209C76.4641 97.0216 79.0682 96.2719 82.856 96.2719L110.791 96.2719C113.316 96.2719 115.328 96.627 116.828 97.3372C118.327 98.0474 119.629 99.2706 120.734 101.007L159.559 161.848C163.031 167.214 165.753 171.988 167.726 176.171C169.699 180.353 172.027 185.916 174.71 192.861C175.183 194.281 175.815 195.978 176.604 197.95C177.393 199.923 178.34 202.251 179.445 204.934L181.339 204.934C177.235 191.677 174.434 181.221 172.934 173.566C171.435 165.912 170.685 156.482 170.685 145.276L170.685 106.215C170.685 102.585 171.396 100.02 172.816 98.5209C174.236 97.0216 176.841 96.2719 180.628 96.2719L204.775 96.2719C208.405 96.2719 210.97 97.0216 212.469 98.5209C213.969 100.02 214.718 102.585 214.718 106.215L214.718 254.412C214.718 258.042 213.969 260.607 212.469 262.106C210.97 263.605 208.405 264.355 204.775 264.355L178.024 264.355C175.657 264.355 173.724 264 172.224 263.29C170.725 262.58 169.423 261.356 168.318 259.62L131.861 203.277C126.968 195.544 123.141 188.363 120.379 181.734C117.617 175.105 114.5 166.109 111.028 154.746L109.134 154.746C112.132 168.161 114.184 178.696 115.289 186.35C116.394 194.005 116.946 203.829 116.946 215.824L116.946 254.412C116.946 258.042 116.196 260.607 114.697 262.106C113.198 263.605 110.554 264.355 106.766 264.355L82.856 264.355Z" fill="#23d4fe" fill-rule="nonzero" opacity="1" stroke="none"/>
<path d="M249.519 264.355C245.731 264.355 243.127 263.605 241.706 262.106C240.286 260.607 239.576 258.042 239.576 254.412L239.576 106.215C239.576 102.585 240.286 100.02 241.706 98.5209C243.127 97.0216 245.731 96.2719 249.519 96.2719L348.711 96.2719C352.499 96.2719 355.143 97.0216 356.642 98.5209C358.142 100.02 358.891 102.585 358.891 106.215L358.891 127.521C358.891 131.309 358.142 133.913 356.642 135.333C355.143 136.754 352.499 137.464 348.711 137.464L286.213 137.464L286.213 158.77L336.164 158.77C339.952 158.77 342.596 159.52 344.095 161.019C345.594 162.519 346.344 165.162 346.344 168.95L346.344 190.02C346.344 193.807 345.594 196.451 344.095 197.95C342.596 199.45 339.952 200.199 336.164 200.199L286.213 200.199L286.213 222.926L350.842 222.926C354.472 222.926 357.037 223.636 358.536 225.057C360.035 226.477 360.785 229.081 360.785 232.869L360.785 254.412C360.785 258.042 360.035 260.607 358.536 262.106C357.037 263.605 354.472 264.355 350.842 264.355L249.519 264.355Z" fill="#23d4fe" fill-rule="nonzero" opacity="1" stroke="none"/>
<path d="M425.651 264.355C421.863 264.355 419.259 263.605 417.839 262.106C416.418 260.607 415.708 258.042 415.708 254.412L415.708 137.464L380.434 137.464C376.646 137.464 374.042 136.754 372.622 135.333C371.201 133.913 370.491 131.309 370.491 127.521L370.491 106.215C370.491 102.585 371.201 100.02 372.622 98.5209C374.042 97.0216 376.646 96.2719 380.434 96.2719L497.619 96.2719C501.407 96.2719 504.011 97.0216 505.431 98.5209C506.852 100.02 507.562 102.585 507.562 106.215L507.562 127.521C507.562 131.309 506.852 133.913 505.431 135.333C504.011 136.754 501.407 137.464 497.619 137.464L462.345 137.464L462.345 254.412C462.345 258.042 461.635 260.607 460.215 262.106C458.794 263.605 456.19 264.355 452.402 264.355L425.651 264.355Z" fill="#23d4fe" fill-rule="nonzero" opacity="1" stroke="none"/>
<path d="M527.448 264.355C523.818 264.355 521.253 263.605 519.754 262.106C518.255 260.607 517.505 258.042 517.505 254.412L517.505 239.971C517.505 236.341 518.61 233.027 520.819 230.028L586.395 137.464L528.631 137.464C525.002 137.464 522.437 136.754 520.938 135.333C519.438 133.913 518.689 131.309 518.689 127.521L518.689 106.215C518.689 102.585 519.438 100.02 520.938 98.5209C522.437 97.0216 525.002 96.2719 528.631 96.2719L638.477 96.2719C642.107 96.2719 644.672 97.0216 646.171 98.5209C647.671 100.02 648.42 102.585 648.42 106.215L648.42 120.419C648.42 124.207 647.316 127.679 645.106 130.835L579.767 222.926L639.661 222.926C643.291 222.926 645.856 223.636 647.355 225.057C648.854 226.477 649.604 229.081 649.604 232.869L649.604 254.412C649.604 258.042 648.854 260.607 647.355 262.106C645.856 263.605 643.291 264.355 639.661 264.355L527.448 264.355Z" fill="#23d4fe" fill-rule="nonzero" opacity="1" stroke="none"/>
<g opacity="1">
<path d="M193.215 289.507C196.915 289.171 199.522 290.516 201.035 293.543C202.549 296.571 202.549 299.682 201.035 302.877C199.522 306.072 196.915 307.838 193.215 308.175C163.28 310.193 134.522 319.442 106.941 335.924C108.959 341.305 109.295 347.023 107.95 353.078C106.604 359.132 103.493 366.195 98.6159 374.268C93.7388 382.34 87.7686 389.824 80.7052 396.719C73.6418 403.615 66.2421 408.744 58.506 412.107C50.7699 415.471 43.202 415.471 35.8022 412.107C29.4115 409.08 26.048 404.624 25.7116 398.737C25.3753 392.851 27.4775 386.461 32.0182 379.565C36.559 372.67 40.8475 367.036 44.8837 362.664C48.9199 358.291 53.1243 354.087 57.4969 350.05C64.5603 343.323 72.2964 336.933 80.7052 330.878C79.0234 329.197 76.2485 326.506 72.3805 322.806C68.5124 319.106 65.6534 316.163 63.8035 313.977C61.9536 311.79 60.2718 308.679 58.7582 304.643C57.2446 300.607 56.8242 296.402 57.4969 292.03C59.1787 280.594 68.092 268.99 84.2369 257.217C88.9458 253.854 93.8229 250.995 98.8682 248.64C103.913 246.286 109.379 244.352 115.265 242.838C121.152 241.325 126.029 242.082 129.897 245.109C133.765 248.136 136.035 253.517 136.708 261.254C137.044 266.635 134.353 269.662 128.635 270.335C122.581 270.671 119.049 268.149 118.04 262.767L117.536 261.254C117.536 260.245 115.013 261.085 109.968 263.776C104.923 266.467 101.559 268.317 99.8773 269.326C83.7324 279.753 75.8281 288.666 76.1644 296.066C76.1644 298.084 76.5008 299.934 77.1735 301.616C77.8462 303.298 79.1075 305.147 80.9575 307.166C82.8074 309.184 84.1528 310.697 84.9937 311.706C85.8346 312.715 87.6845 314.397 90.5435 316.752C93.4025 319.106 95.1683 320.452 95.841 320.788C126.449 302.289 158.907 291.862 193.215 289.507ZM57.4969 390.413C64.8967 385.367 71.6237 378.977 77.678 371.241C83.7324 363.505 87.0959 356.105 87.7686 349.041C77.678 356.441 68.5965 364.514 60.5241 373.259C52.788 382.004 48.4154 388.058 47.4064 391.422C46.0609 394.785 46.2291 396.467 47.9109 396.467C48.2472 396.467 51.4426 394.449 57.4969 390.413Z" fill="#ffffff" fill-rule="nonzero" opacity="1" stroke="none"/>
<path d="M348.105 296.571C352.814 292.534 357.355 292.871 361.727 297.58C366.1 301.952 366.1 306.157 361.727 310.193C334.819 333.401 313.965 336.26 299.166 318.77C297.484 317.088 295.97 315.07 294.625 312.715C285.544 344.333 273.603 362.664 258.804 367.709C247.704 371.745 239.968 370.063 235.595 362.664C231.223 355.264 229.036 344.669 229.036 330.878C218.273 344.333 208.351 354.339 199.269 360.898C190.188 367.457 183.124 367.541 178.079 361.15C176.397 358.796 175.388 355.853 175.052 352.321C174.716 348.789 175.22 344.837 176.566 340.464C177.911 336.092 179.256 332.224 180.602 328.86C181.947 325.497 183.629 321.629 185.647 317.256C187.665 312.884 188.842 310.025 189.179 308.679C195.569 292.871 202.633 277.062 210.369 261.254C213.06 255.536 217.096 254.358 222.478 257.722C227.859 260.749 229.205 264.953 226.514 270.335C221.805 280.089 217.264 290.348 212.892 301.111C208.183 312.211 204.315 321.461 201.287 328.86C201.287 329.533 200.951 330.878 200.278 332.897C204.315 328.86 208.687 324.151 213.396 318.77C220.796 310.361 228.027 301.448 235.091 292.03C238.454 288.33 242.154 287.825 246.19 290.516C250.227 293.207 251.908 296.739 251.236 301.111C248.545 312.547 247.199 322.638 247.199 331.383C247.199 343.492 248.545 349.882 251.236 350.555C251.908 350.555 252.581 350.387 253.254 350.05C253.926 349.714 254.599 349.294 255.272 348.789C255.945 348.285 256.533 347.612 257.038 346.771C257.542 345.93 258.131 345.005 258.804 343.996C259.476 342.987 259.981 342.146 260.317 341.474C260.654 340.801 261.074 340.044 261.578 339.203C262.083 338.362 262.335 337.774 262.335 337.437C270.744 322.974 278.144 301.448 284.534 272.858C285.88 267.476 289.243 265.206 294.625 266.047C300.007 266.887 302.866 269.999 303.202 275.38C303.538 283.116 305.052 290.18 307.743 296.571C314.806 314.061 328.26 314.061 348.105 296.571Z" fill="#ffffff" fill-rule="nonzero" opacity="1" stroke="none"/>
<path d="M474.237 295.561C477.601 293.88 480.796 294.132 483.823 296.318C486.85 298.505 488.364 301.111 488.364 304.138C488.364 307.166 486.85 309.688 483.823 311.706C474.069 316.079 464.315 319.106 454.56 320.788C444.806 322.47 435.052 322.133 425.298 319.779C415.544 317.424 407.807 312.715 402.09 305.652C399.399 311.706 396.624 317.424 393.765 322.806C390.906 328.188 387.626 333.906 383.927 339.96C380.227 346.014 376.527 351.144 372.827 355.348C369.127 359.552 365.259 363 361.223 365.691C357.187 368.382 353.15 369.307 349.114 368.466C345.078 367.625 341.378 365.186 338.014 361.15C332.633 355.096 330.951 347.023 332.969 336.933C334.987 326.842 338.014 317.593 342.051 309.184C346.087 300.775 350.459 293.543 355.168 287.489C360.886 279.753 367.866 274.371 376.106 271.344C384.347 268.317 392.335 268.99 400.071 273.362C405.789 272.353 409.153 274.539 410.162 279.921C411.844 287.321 415.123 292.955 420 296.823C424.877 300.691 430.427 302.793 436.65 303.129C442.872 303.466 449.179 302.961 455.569 301.616C461.96 300.27 468.183 298.252 474.237 295.561ZM365.259 334.915C373.668 323.142 381.572 307.502 388.972 287.994C386.281 286.648 382.329 288.33 377.115 293.039C371.902 297.748 368.118 301.784 365.763 305.147C361.055 312.884 357.523 321.292 355.168 330.374C352.141 341.474 351.3 347.36 352.646 348.032C352.982 348.032 353.403 347.948 353.907 347.78C354.412 347.612 354.916 347.276 355.421 346.771C355.925 346.267 356.43 345.762 356.934 345.257C357.439 344.753 358.027 344.164 358.7 343.492C359.373 342.819 359.961 342.146 360.466 341.474C360.97 340.801 361.559 340.044 362.232 339.203C362.905 338.362 363.409 337.69 363.745 337.185C364.082 336.68 364.418 336.176 364.754 335.671C365.091 335.167 365.259 334.915 365.259 334.915Z" fill="#ffffff" fill-rule="nonzero" opacity="1" stroke="none"/>
<path d="M598.351 290.516C601.714 288.834 604.91 289.087 607.937 291.273C610.964 293.459 612.478 296.066 612.478 299.093C612.478 302.12 610.964 304.643 607.937 306.661C607.264 307.334 604.573 308.763 599.864 310.95C595.156 313.136 591.624 314.818 589.269 315.995C586.915 317.172 583.467 318.602 578.927 320.283C574.386 321.965 570.602 323.058 567.575 323.563C564.548 324.067 561.268 324.32 557.736 324.32C554.205 324.32 551.093 323.647 548.403 322.301C541.003 318.265 537.471 308.343 537.808 292.534C537.808 292.198 537.808 291.778 537.808 291.273C537.808 290.768 537.808 290.264 537.808 289.759C537.808 289.255 537.808 288.666 537.808 287.994C533.435 292.366 528.978 297.411 524.438 303.129C519.897 308.847 516.281 313.556 513.59 317.256C510.899 320.956 506.863 326.59 501.482 334.158C496.1 341.726 492.568 346.855 490.886 349.546C489.541 351.228 486.934 355.18 483.066 361.402C479.198 367.625 475.582 372.922 472.219 377.295C468.855 381.668 465.492 384.863 462.128 386.881C460.447 388.226 458.428 388.731 456.074 388.395C453.72 388.058 451.87 387.049 450.524 385.367C449.515 384.358 448.758 383.097 448.254 381.583C447.749 380.07 447.665 378.388 448.002 376.538C448.338 374.688 448.674 373.175 449.011 371.997C449.347 370.82 449.936 369.054 450.776 366.7C451.617 364.345 452.206 363 452.542 362.664C457.588 348.873 463.978 332.392 471.714 313.22C480.796 291.357 488.027 275.044 493.409 264.281C493.745 263.944 494.418 262.683 495.427 260.497C496.436 258.31 497.193 256.797 497.698 255.956C498.202 255.115 499.043 253.77 500.22 251.92C501.397 250.07 502.491 248.64 503.5 247.631C504.509 246.622 505.686 245.613 507.031 244.604C508.377 243.595 509.722 242.922 511.068 242.586C514.095 241.913 516.87 242.502 519.392 244.352C521.915 246.202 523.176 248.64 523.176 251.668L523.176 256.208C523.176 261.926 520.317 264.953 514.599 265.29C513.59 266.635 513.086 267.644 513.086 268.317C512.413 269.662 511.068 272.185 509.049 275.885C507.031 279.585 505.518 282.444 504.509 284.462C500.472 293.543 495.595 304.811 489.877 318.265C506.695 295.057 519.645 279.08 528.726 270.335C532.09 266.972 535.621 264.449 539.321 262.767C543.021 261.085 546.637 260.917 550.168 262.263C553.7 263.608 555.971 266.972 556.98 272.353C557.652 274.035 557.736 277.398 557.232 282.444C556.727 287.489 556.475 290.853 556.475 292.534C556.811 297.916 557.568 301.195 558.745 302.373C559.923 303.55 563.202 303.634 568.584 302.625C573.965 301.616 583.888 297.58 598.351 290.516Z" fill="#ffffff" fill-rule="nonzero" opacity="1" stroke="none"/>
<path d="M806.721 126.545C827.911 131.254 842.542 137.476 850.615 145.212C857.678 152.612 854.651 159.339 841.533 165.393C837.161 167.411 833.377 166.655 830.181 163.123C826.986 159.591 826.398 155.975 828.416 152.276C826.734 151.939 824.548 151.266 821.857 150.257C819.166 149.248 817.484 148.576 816.811 148.239C810.421 146.558 803.694 145.044 796.63 143.699C782.167 140.671 765.35 138.821 746.178 138.149C733.733 137.476 720.783 137.308 707.329 137.644C697.575 154.462 688.83 170.102 681.093 184.565C657.549 228.291 638.461 266.887 623.83 300.354C609.198 333.822 598.519 367.877 591.792 402.521C591.119 406.221 589.101 408.408 585.738 409.08C582.374 409.753 579.347 408.912 576.656 406.558C573.965 404.203 572.956 401.176 573.629 397.476C580.356 363.168 590.951 329.197 605.414 295.561C619.877 261.926 638.713 223.582 661.921 180.529C668.648 168.084 676.385 154.125 685.13 138.653C672.685 139.326 659.903 140.503 646.786 142.185C604.069 146.558 564.716 153.116 528.726 161.862C525.026 162.534 521.999 161.525 519.645 158.834C517.29 156.144 516.449 153.116 517.122 149.753C517.795 146.389 519.981 144.371 523.681 143.699C576.488 130.917 630.977 123.013 687.148 119.986C688.157 119.649 691.016 119.481 695.725 119.481C708.843 96.9456 721.792 75.7555 734.573 55.9107C735.919 53.8926 737.517 52.5472 739.366 51.8745C741.216 51.2018 743.066 51.2018 744.916 51.8745C746.766 52.5472 748.448 53.5562 749.962 54.9016C751.475 56.247 752.316 57.8447 752.484 59.6946C752.652 61.5446 752.064 63.4786 750.718 65.4967C740.628 81.3053 729.865 98.9637 718.429 118.472C751.727 118.136 781.158 120.827 806.721 126.545Z" fill="#ffffff" fill-rule="nonzero" opacity="1" stroke="none"/>
<path d="M819.334 292.03C822.025 289.339 825.136 288.582 828.668 289.759C832.2 290.937 834.386 293.123 835.227 296.318C836.068 299.514 835.311 302.625 832.956 305.652C826.566 311.706 822.025 315.995 819.334 318.517C816.643 321.04 812.439 324.824 806.721 329.869C801.003 334.915 795.621 338.951 790.576 341.978C785.531 345.005 780.485 347.36 775.44 349.041C772.413 350.387 769.554 351.144 766.863 351.312C764.172 351.48 761.818 351.312 759.8 350.807C757.782 350.303 755.932 349.21 754.25 347.528C752.568 345.846 751.223 344.333 750.214 342.987C749.205 341.642 748.28 339.539 747.439 336.68C746.598 333.822 745.925 331.467 745.421 329.617C744.916 327.767 744.496 325.16 744.159 321.797C743.823 318.433 743.571 315.995 743.403 314.481C743.234 312.968 743.15 310.529 743.15 307.166C743.15 306.493 743.066 305.232 742.898 303.382C742.73 301.532 742.646 300.018 742.646 298.841C742.646 297.664 742.562 296.402 742.394 295.057C742.225 293.712 741.973 292.618 741.637 291.778C741.3 290.937 740.796 290.516 740.123 290.516C739.451 290.18 735.751 293.207 729.024 299.598C722.969 305.316 714.392 314.397 703.293 326.842C699.256 331.551 694.043 337.605 687.652 345.005C681.262 352.405 675.207 359.468 669.489 366.195C663.771 372.922 658.39 378.977 653.344 384.358C637.872 400.84 628.118 403.194 624.082 391.422C622.736 390.076 622.568 387.554 623.577 383.854C624.586 380.154 625.511 377.295 626.352 375.277C627.193 373.259 628.538 370.4 630.388 366.7C632.238 363 633.331 360.814 633.668 360.141C653.513 313.724 686.98 242.754 734.069 147.23C731.042 146.221 728.94 144.539 727.762 142.185C726.585 139.831 726.837 137.14 728.519 134.113C731.546 129.067 733.901 125.451 735.582 123.265C737.264 121.079 740.123 118.64 744.159 115.95C748.196 113.259 752.232 112.586 756.268 113.931C762.995 115.95 765.35 121.163 763.332 129.572C762.659 132.263 761.566 135.458 760.052 139.158C758.539 142.858 756.941 146.137 755.259 148.996C753.577 151.855 751.727 155.135 749.709 158.834C747.691 162.534 746.009 165.561 744.664 167.916C714.729 229.805 690.68 280.089 672.516 318.77C663.435 338.951 658.558 349.714 657.885 351.06C682.103 322.806 697.743 304.811 704.806 297.075C705.815 296.402 707.161 295.057 708.843 293.039C710.524 291.021 711.954 289.423 713.131 288.246C714.308 287.069 715.906 285.471 717.924 283.453C719.942 281.435 721.708 279.837 723.222 278.66C724.735 277.483 726.669 276.137 729.024 274.624C731.378 273.11 733.312 272.185 734.826 271.849C736.339 271.512 738.273 271.092 740.628 270.587C742.982 270.083 745 270.335 746.682 271.344C754.082 273.699 758.791 281.098 760.809 293.543C761.145 296.234 761.229 300.27 761.061 305.652C760.893 311.034 761.061 316.752 761.566 322.806C762.07 328.86 762.995 332.224 764.341 332.897C766.022 333.233 767.536 333.401 768.881 333.401C770.227 333.401 772.161 332.644 774.683 331.131C777.206 329.617 779.561 328.188 781.747 326.842C783.933 325.497 786.456 323.563 789.315 321.04C792.174 318.517 794.696 316.247 796.883 314.229C799.069 312.211 801.507 309.941 804.198 307.418C806.889 304.895 808.991 302.793 810.505 301.111C812.018 299.43 813.784 297.664 815.802 295.814C817.821 293.964 818.998 292.702 819.334 292.03Z" fill="#ffffff" fill-rule="nonzero" opacity="1" stroke="none"/>
</g>
</g>
</svg>
