<?xml version="1.0" encoding="UTF-8" standalone="no"?>
<!DOCTYPE svg PUBLIC "-//W3C//DTD SVG 1.1//EN" "http://www.w3.org/Graphics/SVG/1.1/DTD/svg11.dtd">
<!-- Created with Vectornator (http://vectornator.io/) -->
<svg height="100%" stroke-miterlimit="10" style="fill-rule:nonzero;clip-rule:evenodd;stroke-linecap:round;stroke-linejoin:round;" version="1.1" viewBox="0 0 56.6934 56.6934" width="100%" xml:space="preserve" xmlns="http://www.w3.org/2000/svg" xmlns:xlink="http://www.w3.org/1999/xlink">
<defs/>
<g id="Layer-1">
<path d="M28.3467 0.00295C12.6913 0.00294873 0.00295 12.6912 0.00295 28.3467C0.00294873 44.0021 12.6912 56.6904 28.3467 56.6904C44.0021 56.6905 56.6904 44.0022 56.6904 28.3467C56.6905 12.6913 44.0022 0.00295 28.3467 0.00295ZM35.9717 12.2217C38.2878 12.2217 40.4111 13.2236 42.0654 14.8779C43.8852 14.5471 45.5674 13.8706 47.2217 12.8779C46.56 14.6977 45.2198 16.3541 43.5654 17.3467C45.2198 17.1813 46.7015 16.6959 48.1904 16.0342C47.0324 17.6885 45.7198 19.1574 44.0654 20.3154C44.0654 20.6463 44.0654 20.9846 44.0654 21.3154C44.0655 32.0686 35.9637 44.4717 20.9092 44.4717C16.4425 44.4717 12.1425 43.1628 8.50295 40.8467C9.16469 41.0121 9.80996 41.0029 10.4717 41.0029C14.2767 41.003 17.7531 39.6848 20.5654 37.5342C16.9259 37.5342 13.9643 35.2179 12.9717 31.9092C13.468 32.0746 13.9441 32.0654 14.4404 32.0654C15.2676 32.0654 15.935 31.9184 16.5967 31.7529C12.9572 31.0912 10.1592 27.7859 10.1592 23.8154C10.1592 23.65 10.1592 23.6279 10.1592 23.6279C11.1518 24.1243 12.4607 24.4625 13.7842 24.6279C11.6336 23.139 10.1592 20.6591 10.1592 17.8467C10.1592 16.3578 10.4883 14.8797 11.3154 13.7217C15.2859 18.6847 21.2514 21.8283 28.0342 22.1592C27.8688 21.6629 27.8467 20.9772 27.8467 20.3154C27.8467 15.8487 31.505 12.2217 35.9717 12.2217Z" fill="#ffffff" fill-rule="nonzero" opacity="1" stroke="none"/>
</g>
</svg>
